<svg width="16" height="13" viewBox="0 0 16 13" fill="none" xmlns="http://www.w3.org/2000/svg">
<g id="Group 1660">
<path id="Vector" d="M0.664795 1.16528V5.16634H4.66585" stroke="#14256A" stroke-linecap="square"/>
<path id="Vector_2" d="M15.3353 11.8348V7.83371H11.3342" stroke="#14256A" stroke-linecap="round" stroke-linejoin="round"/>
<path id="Vector_3" d="M13.6616 4.49948C13.3234 3.54375 12.7486 2.68927 11.9908 2.01577C11.233 1.34227 10.317 0.871698 9.32822 0.647967C8.33941 0.424237 7.31004 0.454638 6.33616 0.736334C5.36228 1.01803 4.47563 1.54184 3.75894 2.25889L0.664795 5.16632M15.3353 7.83369L12.2412 10.7411C11.5245 11.4582 10.6378 11.982 9.66396 12.2637C8.69008 12.5454 7.66071 12.5758 6.6719 12.352C5.68309 12.1283 4.76708 11.6577 4.00932 10.9842C3.25157 10.3107 2.67677 9.45626 2.33857 8.50053" stroke="#14256A" stroke-linecap="round" stroke-linejoin="round"/>
</g>
</svg>
