<?xml version="1.0" encoding="utf-8"?>
<!-- License: MIT. Made by ShopWare: https://github.com/shopware/meteor-icon-kit -->
<svg width="26" height="28" viewBox="0 0 26 28" fill="none" xmlns="http://www.w3.org/2000/svg">
    <path fill-rule="evenodd" clip-rule="evenodd" d="M12.6032 1.08209C12.8564 0.972636 13.1436 0.972636 13.3968 1.08209L24.3968 5.83719C24.7884 6.00648 25.0295 6.40557 24.9971 6.83097L23.9971 19.9738C23.9727 20.2946 23.7955 20.584 23.5209 20.7516L13.5209 26.8536C13.2011 27.0488 12.799 27.0488 12.4791 26.8536L2.47912 20.7516C2.20451 20.584 2.02729 20.2946 2.00288 19.9738L1.00288 6.83097C0.970517 6.40557 1.2116 6.00648 1.60321 5.83719L12.6032 1.08209ZM3.05121 7.39012L3.95825 19.3112L13 24.8285L22.0418 19.3112L22.9488 7.39012L13 3.08943L3.05121 7.39012Z" fill="#14256A"/>

    <!-- 嵌入第二個 SVG 的內容 -->
<svg width="20" height="20" viewBox="0 -8 14 30" fill="none" xmlns="http://www.w3.org/2000/svg"><g id="SVGRepo_bgCarrier" stroke-width="0"></g><g id="SVGRepo_tracerCarrier" stroke-linecap="round" stroke-linejoin="round"></g><g id="SVGRepo_iconCarrier"> <path d="M8 13H14M8 17H16M13 3H5V21H19V9M13 3H14L19 8V9M13 3V7C13 8 14 9 15 9H19" stroke="#14256a" stroke-width="1.5" stroke-linecap="round" stroke-linejoin="round"></path> </g></svg>
</svg>
