<svg width="14" height="16" viewBox="0 0 14 16" fill="none" xmlns="http://www.w3.org/2000/svg">
<path d="M13.4167 2.46154H10.5V1.84615C10.5 1.35652 10.3156 0.886947 9.98744 0.540726C9.65925 0.194505 9.21413 0 8.75 0H5.25C4.78587 0 4.34075 0.194505 4.01256 0.540726C3.68437 0.886947 3.5 1.35652 3.5 1.84615V2.46154H0.583333C0.428624 2.46154 0.280251 2.52637 0.170854 2.64178C0.0614583 2.75719 0 2.91371 0 3.07692C0 3.24013 0.0614583 3.39666 0.170854 3.51207C0.280251 3.62747 0.428624 3.69231 0.583333 3.69231H1.16667V14.7692C1.16667 15.0957 1.28958 15.4087 1.50838 15.6395C1.72717 15.8703 2.02391 16 2.33333 16H11.6667C11.9761 16 12.2728 15.8703 12.4916 15.6395C12.7104 15.4087 12.8333 15.0957 12.8333 14.7692V3.69231H13.4167C13.5714 3.69231 13.7198 3.62747 13.8291 3.51207C13.9385 3.39666 14 3.24013 14 3.07692C14 2.91371 13.9385 2.75719 13.8291 2.64178C13.7198 2.52637 13.5714 2.46154 13.4167 2.46154ZM4.66667 1.84615C4.66667 1.68294 4.72813 1.52642 4.83752 1.41101C4.94692 1.2956 5.09529 1.23077 5.25 1.23077H8.75C8.90471 1.23077 9.05308 1.2956 9.16248 1.41101C9.27188 1.52642 9.33333 1.68294 9.33333 1.84615V2.46154H4.66667V1.84615ZM11.6667 14.7692H2.33333V3.69231H11.6667V14.7692ZM5.83333 6.76923V11.6923C5.83333 11.8555 5.77187 12.012 5.66248 12.1275C5.55308 12.2429 5.40471 12.3077 5.25 12.3077C5.09529 12.3077 4.94692 12.2429 4.83752 12.1275C4.72813 12.012 4.66667 11.8555 4.66667 11.6923V6.76923C4.66667 6.60602 4.72813 6.4495 4.83752 6.33409C4.94692 6.21868 5.09529 6.15385 5.25 6.15385C5.40471 6.15385 5.55308 6.21868 5.66248 6.33409C5.77187 6.4495 5.83333 6.60602 5.83333 6.76923ZM9.33333 6.76923V11.6923C9.33333 11.8555 9.27188 12.012 9.16248 12.1275C9.05308 12.2429 8.90471 12.3077 8.75 12.3077C8.59529 12.3077 8.44692 12.2429 8.33752 12.1275C8.22812 12.012 8.16667 11.8555 8.16667 11.6923V6.76923C8.16667 6.60602 8.22812 6.4495 8.33752 6.33409C8.44692 6.21868 8.59529 6.15385 8.75 6.15385C8.90471 6.15385 9.05308 6.21868 9.16248 6.33409C9.27188 6.4495 9.33333 6.60602 9.33333 6.76923Z" fill="#EA1833"/>
</svg>
