<svg width="19" height="22" viewBox="0 0 19 22" fill="none" xmlns="http://www.w3.org/2000/svg">
<path d="M1 11H5.25M1 11L1.00055 15.1665H5.25M1 11V6.83351M5.25 11V15.1665M5.25 11H9.5M5.25 11V6.83351M5.25 15.1665H9.5M9.5 11V15.1665M9.5 11H13.75M9.5 11V6.83351M9.5 15.1665H13.75M13.75 11V15.1665M13.75 11H17.9994M13.75 11V6.83351M13.75 15.1665H17.9994V11M17.9994 11V6.83351M1 6.83351H5.25M1 6.83351V2.66649H5.25M5.25 6.83351H9.5M5.25 6.83351V2.66649M9.5 6.83351H13.75M9.5 6.83351V2.66649M13.75 6.83351H17.9994M13.75 6.83351V2.66649M17.9994 6.83351V2.66649H13.75M5.25 2.66649H9.5M9.5 2.66649H13.75M1 1H18V21H1V1ZM2.70055 16.8335H6.1V21H2.70055V16.8335ZM12.9 16.8335H16.2994V21H12.9V16.8335ZM7.8 16.8335H11.2V21H7.8V16.8335Z" stroke="#616161" stroke-width="0.7" stroke-linecap="round" stroke-linejoin="round"/>
</svg>
