<svg width="12" height="12" viewBox="0 0 12 12" fill="none" xmlns="http://www.w3.org/2000/svg">
  <path
    d="M11.0417 1.84615H8.75V1.38462C8.75 1.01739 8.60513 0.66521 8.34727 0.405545C8.08941 0.145879 7.73967 0 7.375 0H4.625C4.26033 0 3.91059 0.145879 3.65273 0.405545C3.39487 0.66521 3.25 1.01739 3.25 1.38462V1.84615H0.958333C0.836776 1.84615 0.720197 1.89478 0.634243 1.98134C0.548289 2.06789 0.5 2.18528 0.5 2.30769C0.5 2.4301 0.548289 2.54749 0.634243 2.63405C0.720197 2.7206 0.836776 2.76923 0.958333 2.76923H1.41667V11.0769C1.41667 11.3217 1.51324 11.5565 1.68515 11.7296C1.85706 11.9027 2.09022 12 2.33333 12H9.66667C9.90978 12 10.1429 11.9027 10.3148 11.7296C10.4868 11.5565 10.5833 11.3217 10.5833 11.0769V2.76923H11.0417C11.1632 2.76923 11.2798 2.7206 11.3658 2.63405C11.4517 2.54749 11.5 2.4301 11.5 2.30769C11.5 2.18528 11.4517 2.06789 11.3658 1.98134C11.2798 1.89478 11.1632 1.84615 11.0417 1.84615ZM4.16667 1.38462C4.16667 1.26221 4.21496 1.14481 4.30091 1.05826C4.38686 0.971703 4.50344 0.923077 4.625 0.923077H7.375C7.49656 0.923077 7.61314 0.971703 7.69909 1.05826C7.78505 1.14481 7.83333 1.26221 7.83333 1.38462V1.84615H4.16667V1.38462ZM9.66667 11.0769H2.33333V2.76923H9.66667V11.0769ZM5.08333 5.07692V8.76923C5.08333 8.89164 5.03504 9.00903 4.94909 9.09559C4.86314 9.18214 4.74656 9.23077 4.625 9.23077C4.50344 9.23077 4.38686 9.18214 4.30091 9.09559C4.21496 9.00903 4.16667 8.89164 4.16667 8.76923V5.07692C4.16667 4.95452 4.21496 4.83712 4.30091 4.75057C4.38686 4.66401 4.50344 4.61538 4.625 4.61538C4.74656 4.61538 4.86314 4.66401 4.94909 4.75057C5.03504 4.83712 5.08333 4.95452 5.08333 5.07692ZM7.83333 5.07692V8.76923C7.83333 8.89164 7.78505 9.00903 7.69909 9.09559C7.61314 9.18214 7.49656 9.23077 7.375 9.23077C7.25344 9.23077 7.13686 9.18214 7.05091 9.09559C6.96495 9.00903 6.91667 8.89164 6.91667 8.76923V5.07692C6.91667 4.95452 6.96495 4.83712 7.05091 4.75057C7.13686 4.66401 7.25344 4.61538 7.375 4.61538C7.49656 4.61538 7.61314 4.66401 7.69909 4.75057C7.78505 4.83712 7.83333 4.95452 7.83333 5.07692Z"
    fill="currentColor" />
</svg>